<?xml version="1.0" encoding="UTF-8" standalone="no"?>
<svg width="812px" height="484px" viewBox="0 0 812 484" version="1.1" xmlns="http://www.w3.org/2000/svg" xmlns:xlink="http://www.w3.org/1999/xlink">
    <!-- Generator: Sketch 45.2 (43514) - http://www.bohemiancoding.com/sketch -->
    <title>Canadian Check Example</title>
    <desc>Created with Sketch.</desc>
    <defs>
        <rect id="path-1" x="0" y="0" width="812" height="369.21875"></rect>
        <rect id="path-2" x="655" y="121" width="126" height="29"></rect>
    </defs>
    <g id="Page-1" stroke="none" stroke-width="1" fill="none" fill-rule="evenodd">
        <g id="Artboard" transform="translate(-1128.000000, -157.000000)">
            <g id="Canadian-Check-Example" transform="translate(1128.000000, 157.000000)">
                <g id="Group">
                    <g id="Check-BG">
                        <use fill="#F7F7F7" fill-rule="evenodd" xlink:href="#path-1"></use>
                        <rect stroke="#C2C2C2" stroke-width="2" x="1" y="1" width="810" height="367.21875"></rect>
                    </g>
                    <g id="Name" transform="translate(34.000000, 41.000000)">
                        <rect id="Rectangle-2" fill="#000000" x="0" y="0" width="384" height="2"></rect>
                        <text font-family="ProximaNova-Semibold, Proxima Nova" font-size="10" font-weight="500" letter-spacing="0.142857149" fill="#1A1A1A">
                            <tspan x="0" y="11">Name</tspan>
                        </text>
                    </g>
                    <g id="City-Province-Postal-Code" transform="translate(34.000000, 95.000000)">
                        <rect id="Rectangle-2" fill="#000000" x="0" y="0" width="384" height="2"></rect>
                        <text id="City,-Province,-Post" font-family="ProximaNova-Semibold, Proxima Nova" font-size="10" font-weight="500" letter-spacing="0.142857149" fill="#1A1A1A">
                            <tspan x="0" y="11">City, Province, Postal Code</tspan>
                        </text>
                    </g>
                    <rect id="Rectangle-2" fill="#000000" x="472" y="95" width="182.158203" height="2"></rect>
                    <rect id="Rectangle-2" fill="#000000" transform="translate(357.357422, 140.000000) scale(1, -1) translate(-357.357422, -140.000000) " x="92" y="139" width="530.714844" height="2"></rect>
                    <rect id="Rectangle-2-Copy-2" fill="#000000" transform="translate(232.983398, 281.000000) scale(1, -1) translate(-232.983398, -281.000000) " x="71" y="280" width="323.966797" height="2"></rect>
                    <rect id="Rectangle-2-Copy-3" fill="#000000" transform="translate(610.000000, 281.000000) scale(1, -1) translate(-610.000000, -281.000000) " x="436" y="280" width="348" height="2"></rect>
                    <rect id="Rectangle-2-Copy" fill="#000000" transform="translate(328.357422, 182.000000) scale(1, -1) translate(-328.357422, -182.000000) " x="34" y="181" width="588.714844" height="2"></rect>
                    <rect id="Rectangle-4" fill="#000000" x="621" y="123" width="2" height="17"></rect>
                    <text id="Pay-to-the-Order-of" font-family="ProximaNova-Semibold, Proxima Nova" font-size="10" font-weight="500" letter-spacing="0.142857149" fill="#1A1A1A">
                        <tspan x="34" y="141">Pay to the</tspan>
                        <tspan x="34" y="153">Order of</tspan>
                    </text>
                    <text id="MEMO" font-family="ProximaNova-Semibold, Proxima Nova" font-size="10" font-weight="500" letter-spacing="0.142857149" fill="#1A1A1A">
                        <tspan x="34" y="284">MEMO</tspan>
                    </text>
                    <text id="C004C" font-family="MICREncoding, MICR E" font-size="36" font-weight="normal" fill="#1A1A1A">
                        <tspan x="8" y="337">C004C</tspan>
                    </text>
                    <text id="a12345" font-family="MICREncoding, MICR E" font-size="36" font-weight="normal" line-spacing="8" fill="#1A1A1A">
                        <tspan x="113" y="337.133789">a12345</tspan>
                    </text>
                    <text id="d004a" font-family="MICREncoding, MICR E" font-size="36" font-weight="normal" line-spacing="8" fill="#1A1A1A">
                        <tspan x="221" y="337.133789">d004a</tspan>
                    </text>
                    <text id="1234d567C" font-family="MICREncoding, MICR E" font-size="36" font-weight="normal" line-spacing="8" fill="#1A1A1A">
                        <tspan x="330" y="337.133789">1234d567C</tspan>
                    </text>
                    <text id="MP" font-family="ProximaNova-Semibold, Proxima Nova" font-size="10" font-weight="500" letter-spacing="0.142857149" fill="#1A1A1A">
                        <tspan x="769" y="277">MP</tspan>
                    </text>
                    <text id="/-100-Dollars" font-family="ProximaNova-Semibold, Proxima Nova" font-size="10" font-weight="500" letter-spacing="0.142857149" fill="#1A1A1A">
                        <tspan x="566" y="176">/ 100 Dollars</tspan>
                    </text>
                    <g id="Address" transform="translate(34.000000, 68.000000)">
                        <rect id="Rectangle-2" fill="#000000" x="0" y="0" width="384" height="2"></rect>
                        <text font-family="ProximaNova-Semibold, Proxima Nova" font-size="10" font-weight="500" letter-spacing="0.142857149" fill="#1A1A1A">
                            <tspan x="0" y="11">Address</tspan>
                        </text>
                    </g>
                    <text id="Date" font-family="ProximaNova-Semibold, Proxima Nova" font-size="10" font-weight="500" letter-spacing="0.142857149" fill="#1A1A1A">
                        <tspan x="472" y="106">Date</tspan>
                    </text>
                    <text id="$" font-family="ProximaNova-Semibold, Proxima Nova" font-size="24" font-weight="500" letter-spacing="0.342857152" fill="#1A1A1A">
                        <tspan x="634" y="143">$</tspan>
                    </text>
                    <text id="004" font-family="ProximaNova-Semibold, Proxima Nova" font-size="24" font-weight="500" letter-spacing="0.342857152" fill="#1A1A1A">
                        <tspan x="688" y="53">004</tspan>
                    </text>
                    <g id="Rectangle-3">
                        <use fill="#FFFFFF" fill-rule="evenodd" xlink:href="#path-2"></use>
                        <rect stroke="#000000" stroke-width="2" x="656" y="122" width="124" height="27"></rect>
                    </g>
                </g>
                <text id="Cheque-Number" font-family="ProximaNova-Bold, Proxima Nova" font-size="18" font-weight="bold" letter-spacing="0.257142872" fill="#1A1A1A">
                    <tspan x="21.4135714" y="461">Cheque</tspan>
                    <tspan x="20.2975714" y="483">Number</tspan>
                </text>
                <path d="M81,358 L81,359 L54,359 L54,427 L52,427 L52,359 L25.1740723,359 L24,359 L24,349 L26,349 L26,357 L79,357 L79,349 L81,349 L81,358 Z" id="Combined-Shape" fill="#000000"></path>
                <path d="M296,358 L296,359 L269,359 L269,427 L267,427 L267,359 L240.174072,359 L239,359 L239,349 L241,349 L241,357 L294,357 L294,349 L296,349 L296,358 Z" id="Combined-Shape-Copy-2" fill="#000000"></path>
                <path d="M220.825928,359 L180,359 L180,427 L178,427 L178,359 L136,359 L136,358 L136,349 L138,349 L138,357 L220,357 L220,349 L222,349 L222,359 L220.825928,359 Z" id="Combined-Shape-Copy" fill="#000000"></path>
                <path d="M473.825928,359 L406,359 L406,427 L404,427 L404,359 L336,359 L336,358 L336,349 L338,349 L338,357 L473,357 L473,349 L475,349 L475,359 L473.825928,359 Z" id="Combined-Shape-Copy-3" fill="#000000"></path>
                <text id="Branch-ID" font-family="ProximaNova-Bold, Proxima Nova" font-size="18" font-weight="bold" letter-spacing="0.257142872" fill="#1A1A1A">
                    <tspan x="138.094857" y="457">Branch ID</tspan>
                </text>
                <text id="Bank-ID" font-family="ProximaNova-Bold, Proxima Nova" font-size="18" font-weight="bold" letter-spacing="0.257142872" fill="#1A1A1A">
                    <tspan x="242.488" y="457">Bank ID</tspan>
                </text>
                <text id="Account-Number" font-family="ProximaNova-Bold, Proxima Nova" font-size="18" font-weight="bold" letter-spacing="0.257142872" fill="#1A1A1A">
                    <tspan x="336.197" y="460">Account Number</tspan>
                </text>
            </g>
        </g>
    </g>
</svg>