<?xml version="1.0" encoding="utf-8"?>
<!-- Generator: Adobe Illustrator 19.0.1, SVG Export Plug-In . SVG Version: 6.00 Build 0)  -->
<!DOCTYPE svg PUBLIC "-//W3C//DTD SVG 1.1//EN" "http://www.w3.org/Graphics/SVG/1.1/DTD/svg11.dtd">
<svg version="1.1" id="Layer_1" xmlns="http://www.w3.org/2000/svg" xmlns:xlink="http://www.w3.org/1999/xlink" x="0px" y="0px"
	 viewBox="0 0 759 281" enable-background="new 0 0 759 281" xml:space="preserve">
<g>
	<g>
		<g>
			<g>
				<g>
					<polygon fill="#F37B28" points="671,32.6 747.7,81.8 671,0.1 					"/>
					<path fill="#F37B28" d="M713.9,122.7L713.9,122.7L759,93.9L630.9,12.2v47.1c0,0,0,0,0,0.4v0.8c0,2.5,0.8,9.6,7.5,14.2l30,19.2
						l0,0L713.9,122.7z"/>
					<path fill="#F37B28" d="M642.2,111c-1.3,0.8-10.8,7.1-11.3,17.9l0,0v46.7l79.3-50.5l-45.1-28.8L642.2,111z"/>
				</g>
				<g>
					<path fill="#FFFFFF" d="M511.2,221.2h-83.9c1.3,25,14.6,37.1,40.1,37.1c13.4,0,26.7-5,40.1-15.4h1.3v28.4
						c-15.9,6.3-30.9,9.6-45.1,9.6c-22.1,0-39.2-5.4-50.5-16.7c-11.7-11.3-17.5-27.1-17.5-48s5.4-37.1,16.7-48.8
						c10.8-12.1,26.3-17.9,45.5-17.9c35.5,0,53.4,20,53.4,59.7V221.2z M479.9,202.4c-0.4-21.3-8.3-32.1-24.6-32.1
						c-17.1,0-26.3,10.8-27.5,32.1H479.9z"/>
					<path fill="#FFFFFF" d="M240.8,124c0,9.2-7.5,16.7-16.7,16.7c-9.2,0-16.7-7.5-16.7-16.7s7.5-16.7,16.7-16.7
						C233.3,106.9,240.8,114.4,240.8,124z"/>
					<path fill="#FFFFFF" d="M0.1,121.9c0-2.9,2.5-5.4,5-5.4h0.8h121.8v26.7h-48v134.8H47.7V143.2H0.1v-20.4V121.9z"/>
					<path fill="#FFFFFF" d="M114.4,159.4c0-2.9,2.1-5.4,5-5.4h3.3h22.9v22.5c9.6-9.2,17.5-15,23.8-18.4c6.3-2.9,12.1-4.6,18.4-4.6
						c1.7,0,3.8,0,6.7,0.4v33.8h-0.8c-4.2-1.3-10-1.7-17.1-1.7c-15,0.4-21.7,2.9-30.5,7.5v84.7h-31.7c0-1.7,0-116.8,0-116.8V159.4z"
						/>
					<path fill="#FFFFFF" d="M353.1,123.6v97.2l-57.6-104.3h-31.7h-1.7c-2.9,0-5,2.5-5,5.4v1.7v154.4h29.6V159.4l65.5,118.5h30.9
						V116.5h-22.5h-1.7c-2.9,0-5,2.5-5,5.4v1.7H353.1z"/>
					<path fill="#FFFFFF" d="M524.1,175.7v64.7c0,14.2,3.3,24.6,9.6,30.9c6.7,6.3,16.7,9.6,30.9,9.6c9.6,0,18.4-1.3,26.7-3.3V255
						h-0.8c-4.6,2.5-9.6,3.8-14.2,3.8c-7.5,0-12.9-2.1-16.3-5.8c-3.3-4.2-4.6-12.5-4.6-25.9v-51.3h27.5V154h-27.5v-37.5h-24.2h-1.7
						c-2.9,0-5,2.5-5,5.4V154v21.7H524.1z"/>
					<path fill="#FFFFFF" d="M208.3,159.4c0-2.9,2.5-5.4,5-5.4h1.7h24.6v124.3h-31.3V161.5V159.4z"/>
				</g>
			</g>
		</g>
	</g>
</g>
</svg>
