<?xml version="1.0" encoding="utf-8"?>
<!-- Generator: Adobe Illustrator 19.2.1, SVG Export Plug-In . SVG Version: 6.00 Build 0)  -->
<svg version="1.1" id="Layer_1" xmlns="http://www.w3.org/2000/svg" xmlns:xlink="http://www.w3.org/1999/xlink" x="0px" y="0px"
	 viewBox="0 0 194 72" enable-background="new 0 0 194 72" xml:space="preserve">
<g>
	<g>
		<g>
			<g>
				<g>
					<g>
						<polygon fill="#E37222" points="171.477,8.362 191.166,20.949 171.477,0 						"/>
						<path fill="#E37222" d="M182.491,31.355L182.491,31.355L194,24.006L161.253,3.085l0.007,12.044c0,0,0.005,0.028,0,0.073v0.205
							c0.02,0.677,0.24,2.438,1.959,3.638l7.67,4.903h0.003L182.491,31.355z"/>
						<path fill="#E37222" d="M164.138,28.352c-0.326,0.216-2.811,1.858-2.886,4.555v0.05v11.969l20.271-12.931l-11.522-7.365
							L164.138,28.352z"/>
					</g>
					<g>
						<path fill="#0073CF" d="M130.674,56.57h-21.389c0.351,6.37,3.779,9.559,10.289,9.559c3.405,0,6.828-1.305,10.264-3.901h0.29
							v7.297C126.046,71.177,122.207,72,118.612,72c-5.662,0-9.977-1.418-12.947-4.256c-2.97-2.833-4.452-6.927-4.452-12.272
							c0-5.305,1.407-9.483,4.22-12.529c2.814-3.045,6.695-4.569,11.644-4.569c9.064,0,13.597,5.077,13.597,15.238V56.57z
							 M122.678,51.794c-0.07-5.47-2.181-8.209-6.334-8.209c-4.409,0-6.763,2.739-7.059,8.209H122.678z"/>
						<ellipse fill="#0073CF" cx="57.262" cy="31.667" rx="4.313" ry="4.316"/>
						<path fill="#0073CF" d="M0,31.181c0-0.762,0.594-1.399,1.312-1.399h0.235h31.12v6.859h-12.25v34.51H12.25v-34.51H0v-5.253
							V31.181z"/>
						<path fill="#0073CF" d="M29.269,40.768c0-0.731,0.571-1.409,1.306-1.409h0.802h5.89v5.761c2.45-2.321,4.465-3.877,6.045-4.679
							c1.579-0.79,3.134-1.192,4.665-1.192c0.397,0,0.961,0.021,1.691,0.054v8.649h-0.262c-1.073-0.289-2.518-0.468-4.324-0.437
							c-3.844,0.059-5.533,0.738-7.814,1.966v21.671h-7.998c0-0.451,0-29.925,0-29.925V40.768z"/>
						<path fill="#0073CF" d="M90.279,31.616v24.9L75.584,29.782H67.45h-0.456c-0.732,0-1.312,0.668-1.312,1.383l0.002,0.451v39.536
							h7.572V40.817l16.731,30.334h7.867v-41.37h-5.802h-0.454c-0.739,0-1.319,0.651-1.319,1.385V31.616z"/>
						<path fill="#0073CF" d="M133.955,44.932v16.55c0,3.628,0.831,6.248,2.499,7.871c1.669,1.615,4.297,2.429,7.894,2.429
							c2.43,0,4.713-0.278,6.851-0.825v-5.763h-0.234c-1.219,0.642-2.442,0.959-3.675,0.959c-1.929,0-3.298-0.508-4.116-1.538
							c-0.816-1.023-1.225-3.222-1.225-6.589V44.932h7.079l0.002-5.573h-7.082v-9.577c0-0.005-6.203,0-6.203,0h-0.477
							c-0.742,0-1.32,0.661-1.32,1.409l0.005,8.169V44.932z"/>
						<path fill="#0073CF" d="M53.264,40.772c0-0.797,0.611-1.413,1.314-1.413h0.447h6.235v31.792h-7.997V41.214V40.772z"/>
					</g>
				</g>
			</g>
		</g>
	</g>
	<g>
		<path fill="#0073CF" d="M186.695,10.384c-1.182,0-2.118-0.929-2.118-2.116c0-1.192,0.936-2.121,2.118-2.121
			c1.189,0,2.127,0.929,2.127,2.121C188.822,9.455,187.884,10.384,186.695,10.384z M186.695,6.441c-1.016,0-1.823,0.797-1.823,1.827
			c0,1.023,0.799,1.825,1.823,1.825c1.022,0,1.823-0.802,1.823-1.825C188.518,7.238,187.717,6.441,186.695,6.441z M187.236,9.469
			l-0.565-0.954h-0.322v0.954h-0.419V7.045h0.836c0.439,0,0.837,0.233,0.837,0.727c0,0.51-0.398,0.665-0.498,0.689l0.606,1.009
			H187.236z M186.708,7.365h-0.358v0.828h0.358c0.269,0,0.448-0.127,0.448-0.421C187.156,7.494,186.977,7.365,186.708,7.365z"/>
	</g>
</g>
</svg>
